<?xml version="1.0" standalone="no"?>
<!DOCTYPE svg PUBLIC "-//W3C//DTD SVG 20010904//EN"
 "http://www.w3.org/TR/2001/REC-SVG-20010904/DTD/svg10.dtd">
<svg version="1.0" xmlns="http://www.w3.org/2000/svg"
 width="1000.000000pt" height="1000.000000pt" viewBox="0 0 1000.000000 1000.000000"
 preserveAspectRatio="xMidYMid meet">
<metadata>
Created by potrace 1.14, written by Peter Selinger 2001-2017
</metadata>
<g transform="translate(0.000000,1000.000000) scale(0.100000,-0.100000)"
fill="#000000" stroke="none">
<path d="M4830 8570 l0 -250 255 0 255 0 0 250 0 250 -255 0 -255 0 0 -250z"/>
<path d="M3980 8605 l0 -95 95 0 95 0 0 95 0 95 -95 0 -95 0 0 -95z"/>
<path d="M2450 8555 l0 -85 90 0 90 0 0 85 0 85 -90 0 -90 0 0 -85z"/>
<path d="M3240 8370 l0 -120 120 0 120 0 0 120 0 120 -120 0 -120 0 0 -120z"/>
<path d="M4180 8115 l0 -145 150 0 150 0 0 145 0 145 -150 0 -150 0 0 -145z"/>
<path d="M5540 8075 l0 -135 135 0 135 0 0 135 0 135 -135 0 -135 0 0 -135z"/>
<path d="M2858 8068 c142 -206 407 -492 567 -612 11 -9 17 -16 13 -16 -6 0
-121 43 -237 90 l-55 21 74 -78 c488 -514 1177 -1014 1891 -1373 l83 -42 66
32 c443 218 1006 583 1385 900 134 111 345 303 440 399 65 67 68 72 52 88 -16
16 -21 16 -89 -7 -107 -36 -108 -35 -48 20 l55 51 -40 35 c-88 77 -60 84 -289
-69 l-204 -136 -99 35 c-124 45 -333 98 -486 124 -171 29 -157 34 -157 -60 l0
-80 -145 0 -145 0 0 94 0 93 -52 7 c-29 3 -140 6 -245 6 l-193 0 0 95 0 95
-130 0 -130 0 0 -290 0 -290 -220 0 -220 0 0 150 c0 83 -3 150 -6 150 -21 0
-220 -56 -317 -90 -114 -39 -120 -40 -252 -40 l-135 0 0 85 0 85 125 0 125 0
0 140 0 140 -140 0 -140 0 0 -121 0 -120 -32 22 c-176 121 -485 346 -576 419
-62 49 -115 90 -118 90 -3 0 8 -19 24 -42z m2822 -973 l0 -75 -75 0 -75 0 0
75 0 75 75 0 75 0 0 -75z m-1445 -85 l0 -105 -102 -3 -103 -3 0 111 0 111 103
-3 102 -3 0 -105z m865 -195 l0 -135 -135 0 -135 0 0 135 0 135 135 0 135 0 0
-135z"/>
<path d="M1810 7855 l0 -185 190 0 190 0 0 185 0 185 -190 0 -190 0 0 -185z"/>
<path d="M2417 7453 c-4 -3 -7 -64 -7 -135 l0 -128 135 0 135 0 0 135 0 135
-128 0 c-71 0 -132 -3 -135 -7z"/>
<path d="M3127 7099 c-4 -51 -7 -145 -7 -211 l0 -118 140 0 140 0 0 -190 0
-190 -120 0 c-104 0 -120 -2 -120 -16 0 -45 57 -284 95 -399 111 -338 279
-592 528 -800 l58 -48 -20 54 c-28 76 -49 163 -57 239 l-7 65 78 -73 c199
-186 483 -333 1015 -525 129 -47 259 -95 289 -107 41 -16 60 -19 80 -11 14 5
132 47 261 94 596 215 871 357 1094 567 l59 55 -7 -65 c-8 -73 -29 -163 -53
-228 -9 -23 -14 -44 -11 -47 7 -7 156 132 227 211 225 252 373 602 442 1041
17 113 22 198 26 462 l5 325 -48 -42 c-75 -65 -331 -271 -405 -325 l-65 -48 9
-72 c11 -92 3 -277 -18 -387 -48 -251 -174 -510 -318 -653 -77 -78 -132 -116
-240 -168 -205 -98 -455 -102 -669 -10 l-46 20 -35 -74 c-65 -136 -220 -344
-242 -325 -41 34 -166 257 -210 372 l-17 47 -60 -30 c-102 -51 -197 -72 -338
-72 -148 -1 -224 15 -349 74 -221 103 -377 290 -484 579 -66 179 -81 270 -82
498 l-1 203 -144 111 c-165 126 -243 190 -316 260 l-51 49 -6 -92z m443 -964
l0 -85 -85 0 -85 0 0 85 0 85 85 0 85 0 0 -85z"/>
<path d="M2660 6680 l0 -150 155 0 155 0 0 150 0 150 -155 0 -155 0 0 -150z"/>
<path d="M1580 6525 l0 -295 295 0 295 0 0 295 0 295 -295 0 -295 0 0 -295z"/>
<path d="M3927 6308 l-65 -72 29 -80 c45 -124 102 -211 203 -311 74 -74 107
-98 176 -132 105 -51 172 -67 275 -67 101 0 199 29 284 84 70 45 161 127 161
144 -1 6 -55 44 -122 84 l-121 73 -36 -34 c-59 -57 -97 -72 -181 -72 -57 0
-85 6 -115 22 -62 32 -121 103 -139 164 -20 67 -20 101 3 166 l17 51 -25 12
c-14 7 -79 16 -145 21 -65 5 -122 12 -126 14 -5 3 -38 -27 -73 -67z"/>
<path d="M6389 6376 c-3 -3 -59 -10 -125 -15 -65 -5 -131 -14 -145 -21 l-25
-12 19 -56 c31 -94 11 -184 -59 -262 -58 -64 -105 -85 -194 -85 -84 0 -134 20
-188 75 l-31 30 -120 -72 c-66 -40 -121 -78 -121 -84 0 -16 99 -108 156 -144
180 -114 406 -113 603 2 81 47 220 189 268 273 45 78 93 193 93 222 0 20 -121
159 -131 149z"/>
<path d="M2620 5820 l0 -210 163 -2 162 -3 3 -232 2 -233 -225 0 -225 0 0
-160 0 -160 93 0 92 0 1 -267 c0 -181 6 -317 17 -420 16 -143 41 -307 53 -345
5 -16 24 -18 205 -18 l199 0 0 -255 0 -255 -150 0 -150 0 0 -160 0 -160 143 0
142 0 74 -86 c181 -210 445 -404 702 -516 160 -70 149 -70 149 1 l0 61 195 0
195 0 0 -114 c0 -63 4 -117 9 -120 18 -11 422 -75 696 -111 703 -90 937 -146
1131 -270 73 -47 155 -124 212 -200 41 -55 44 -57 39 -28 -3 17 -20 67 -37
111 -57 149 -174 306 -294 395 -177 131 -393 210 -1016 372 -533 139 -726 202
-955 315 -99 49 -193 104 -247 145 l-86 65 -116 0 -116 0 0 170 0 170 170 0
170 0 0 -119 0 -120 106 -40 c231 -90 418 -134 949 -226 447 -77 636 -119 840
-186 643 -213 1030 -620 1271 -1339 l28 -85 9 75 c13 120 12 525 -2 635 -32
263 -92 472 -186 653 -75 143 -151 246 -269 360 -194 188 -424 317 -747 420
-254 81 -513 132 -1134 222 -547 80 -751 122 -982 201 -316 108 -544 277 -654
485 l-34 64 -123 0 -122 0 2 198 3 197 198 3 197 2 0 -163 0 -164 58 -45 c93
-73 197 -137 317 -194 63 -30 118 -54 124 -54 7 0 11 27 11 70 l0 70 160 0
160 0 0 -200 0 -200 120 0 120 0 0 51 c0 50 0 51 28 45 99 -21 398 -63 781
-111 245 -30 512 -66 595 -80 683 -116 1026 -301 1192 -646 l35 -74 -5 125
c-26 584 -297 949 -849 1139 -227 78 -433 121 -948 196 -408 60 -569 88 -759
131 -663 152 -1066 430 -1291 889 -67 138 -118 284 -151 437 l-23 108 -212 0
-213 0 0 -210z m2140 -2480 l0 -110 -110 0 -110 0 0 110 0 110 110 0 110 0 0
-110z"/>
<path d="M5200 5490 c0 -137 2 -250 4 -250 6 0 188 341 184 344 -2 2 -42 37
-90 79 -48 43 -89 77 -92 77 -4 0 -6 -112 -6 -250z"/>
<path d="M1820 5405 l0 -205 205 0 205 0 0 205 0 205 -205 0 -205 0 0 -205z"/>
<path d="M1270 4415 l0 -95 95 0 95 0 0 95 0 95 -95 0 -95 0 0 -95z"/>
<path d="M2080 4270 l0 -110 110 0 110 0 0 110 0 110 -110 0 -110 0 0 -110z"/>
<path d="M2150 3480 l0 -200 200 0 200 0 0 200 0 200 -200 0 -200 0 0 -200z"/>
<path d="M1630 2800 l0 -140 140 0 140 0 0 140 0 140 -140 0 -140 0 0 -140z"/>
<path d="M2520 2330 l0 -230 230 0 230 0 0 230 0 230 -230 0 -230 0 0 -230z"/>
<path d="M3670 1870 l0 -90 90 0 90 0 0 90 0 90 -90 0 -90 0 0 -90z"/>
<path d="M4340 1660 l0 -140 140 0 140 0 0 140 0 140 -140 0 -140 0 0 -140z"/>
<path d="M3097 1623 c-4 -3 -7 -53 -7 -110 l0 -103 110 0 110 0 0 110 0 110
-103 0 c-57 0 -107 -3 -110 -7z"/>
<path d="M5090 1525 l0 -85 85 0 85 0 0 85 0 85 -85 0 -85 0 0 -85z"/>
</g>
</svg>
